<?xml version="1.0" encoding="UTF-8"?>
<svg id="Warstwa_1" data-name="Warstwa 1" xmlns="http://www.w3.org/2000/svg" viewBox="0 0 1080 1080">
  <defs>
    <style>
      .cls-1 {
        fill: #c90209;
      }
    </style>
  </defs>
  <g>
    <path class="cls-1" d="M826.33,550.95c0,15.93-12.98,29.02-28.9,28.88-16.15-.13-28.67-13.04-28.78-28.86-.1-16.03,12.84-28.83,28.94-28.82,16.02,0,28.73,12.75,28.74,28.79ZM814.15,551.19c.02-9.32-7.33-16.87-16.43-16.87-9.25,0-16.81,7.51-16.83,16.72-.02,8.95,7.56,16.51,16.59,16.54,9.17.03,16.65-7.33,16.67-16.39Z"/>
    <path class="cls-1" d="M666.48,541.01c0-3.93,0-7.87,0-11.8,0-3.76,2.53-6.49,6.16-6.66,3.67-.17,6.69,2.24,6.7,6.04.02,9.42.45,18.92-.65,28.22-1.26,10.72-7.87,17.94-18.25,21.36-15.16,5-30.24-4.69-33.65-19.14-.68-2.89-1.01-5.91-1.08-8.88-.16-6.55-.09-13.11-.03-19.67.02-2.54.43-4.99,2.75-6.63,2.05-1.45,4.24-1.77,6.54-.82,2.26.94,3.67,2.69,3.73,5.16.14,6.24.11,12.48.19,18.73.04,2.87-.11,5.78.29,8.6,1.37,9.58,11.44,14.71,20,10.19,5.09-2.69,7.03-7.41,7.27-12.89.17-3.93.03-7.87.03-11.8Z"/>
    <path class="cls-1" d="M311.74,558.7h0c0-2.71,0-5.42-.01-8.13-.05-9.09-3.54-16.58-10.59-22.36-11.24-9.22-28.56-8.42-38.83,1.79-10.44,10.38-11.55,27.08-2.59,38.81,7.15,9.35,19.04,12.68,29.98,9.53,3.55-1.02,6.65-2.78,9.64-5.29.24,3.21,2.91,5.75,6.19,5.75h0c.98,0,1.9-.23,2.72-.63.32-.15.63-.32.93-.52,1.09-.74,1.73-1.67,2.1-2.72.29-.72.46-1.51.46-2.33v-13.88ZM282.79,567.22c-9.16-.01-16.55-7.5-16.52-16.74.03-9.2,7.5-16.56,16.75-16.52,9.25.04,16.53,7.43,16.51,16.75-.02,9.18-7.46,16.52-16.74,16.51Z"/>
    <path class="cls-1" d="M500.24,562.63c-2.85-2.14-6.9-1.57-9.04,1.28-.8,1.06-1.74,1.81-2.81,2.23-1.63.65-3.18.4-3.92.29-.91-.14-2.67-.58-4.2-1.9-1.65-1.43-2.42-3.43-3.24-5.55l-.41-1.06c-.59-1.51-1.09-2.82-1.6-4.36-1.01-3.05-1.39-4.62-1.77-6.13-.05-.22-.12-.44-.2-.65l15.11-15.11c2.53-2.53,2.53-6.63,0-9.16-2.53-2.53-6.63-2.53-9.16,0l-21.18,21.18v-36.82c0-3.58-2.9-6.47-6.47-6.47s-6.47,2.9-6.47,6.47v65.22c0,3.58,2.9,6.47,6.47,6.47,3.58,0,6.47-2.9,6.47-6.47v-10.09s4.79-4.79,4.79-4.79c.04.13.08.25.13.39.61,1.86,1.2,3.38,1.83,5l.4,1.04c1.09,2.83,2.75,7.12,6.83,10.65,3.76,3.26,7.87,4.47,10.65,4.9.65.1,1.9.3,3.54.3,1.95,0,4.46-.28,7.13-1.34,3.26-1.29,6.16-3.53,8.38-6.48,2.14-2.85,1.57-6.9-1.28-9.04Z"/>
    <path class="cls-1" d="M566.03,551.43c-3.31-2.16-6.97-3.83-10.57-5.51-3.31-1.54-6.82-2.66-10.12-4.22-.02,0-.03-.01-.04-.02-2.09-1-2.77-2.76-2.39-4.61.04-.19.1-.38.16-.56.47-1.36,2.04-1.99,2.55-2.21,2.04-.86,4.01-.53,5.32-.31.84.14,1.51.34,1.97.49.5.15,1.17.37,1.93.65.95.36,1.97.77,3.12,1.37,1.4.73,2.24,1.37,4.01,2.28,1.13.59,3.39,1.36,5.61.38,2.65-1.17,3.32-4.11,3.36-4.29.07-.35.25-1.36-.04-2.63-.47-2.04-1.9-3.53-3.71-4.85-7.62-5.57-17.04-5.63-17.04-5.63-4.51-.02-8.77.88-12.8,2.98-9.96,5.17-9.35,18.64-2.1,23.49,3.29,2.2,6.92,3.92,10.51,5.62,3.2,1.52,6.61,2.6,9.82,4.09,1.82.85,3.06,2.36,2.9,4.61-.15,2.15-1.42,3.42-3.33,4.07-3.79,1.27-7.57.76-11.14-.7-2.5-1.03-3.49-2.23-7.55-4.05-.86-.38-2.46-1.07-4.21-.58-.92.26-1.53.74-1.93,1.05-.39.3-1.95,1.6-2.47,3.89-.07.29-.28,1.27-.12,2.31.36,2.35,2.43,3.79,4.96,5.49,1.38.93,4.64,2.96,9.62,4.3.73.2,1.96.54,3.64.78,6.81.97,13.25.16,19.15-3.8,7.87-5.28,9.1-18.56.95-23.88Z"/>
    <path class="cls-1" d="M590.86,540.66v-5.98s22.92,0,22.92,0c3.36,0,6.08-2.72,6.08-6.08h0c0-3.36-2.72-6.08-6.08-6.08h-22.92s0-11.2,0-11.2c0-3.53-2.87-6.4-6.4-6.4h0c-3.53,0-6.4,2.87-6.4,6.4v11.2s0,12.17,0,12.17v5.98s0,10.33,0,10.33v7.29c0,11.32,8.78,20.97,20.09,21.4,11.89.45,21.71-9.09,21.71-20.88v-6.57c0-3.5-2.7-6.56-6.2-6.66-3.62-.11-6.6,2.8-6.6,6.4v6.55c0,4.12-2.95,7.79-7.03,8.32-4.94.63-9.17-3.22-9.17-8.03v-7.8s0-10.33,0-10.33Z"/>
    <path class="cls-1" d="M741.99,532.85v-12.78c0-2.2.01-4.39.01-6.59,0-2,.04-3.99-.01-5.99v-.63c0-3.34-2.57-6.09-5.84-6.37-.01,0-.03,0-.04,0-.17-.01-.35-.03-.52-.03-.02,0-.04,0-.06,0-.1,0-.21,0-.31.02-.12,0-.24.01-.36.03-.03,0-.05,0-.08,0-.03,0-.06.02-.09.02-.36.05-.71.13-1.05.24-.03,0-.06.02-.09.03-2.53.85-4.36,3.24-4.36,6.06v6.41c0,2.52,0,5.04,0,7.56v5.63c-.84-.38-1.24-.52-1.6-.73-6.43-3.72-13.27-4.69-20.56-3.39-15.94,2.83-26.56,19.17-22.62,34.91,3.68,14.71,18.86,24.54,33.69,21.73,4.18-.79,8.2-2.62,11.72-5.22.1,3.29,2.79,5.93,6.1,5.93,3.37,0,6.11-2.73,6.11-6.11v-40.74h-.04ZM713.31,567.22c-9.58-.03-16.72-7.36-16.69-17.14.03-9.07,7.44-16.15,16.89-16.12,9.24.03,16.33,7.38,16.3,16.9-.03,9.03-7.46,16.39-16.51,16.36Z"/>
    <rect class="cls-1" x="748.98" y="522.54" width="13.21" height="56.57" rx="5.14" ry="5.14"/>
    <circle class="cls-1" cx="755.58" cy="506.77" r="6.6"/>
  </g>
  <path class="cls-1" d="M411.64,521.8c-.32,0-.61,0-.61,0-.03,0-.07.02-.1.03-3.09.26-5.51,2.84-5.51,6,0,2.53,1.57,4.7,3.78,5.59.77.35,1.62.54,2.5.54h.04c9.09.02,16.42,7.57,16.39,16.9-.02,8.97-7.49,16.37-16.52,16.36-.84,0-1.66-.08-2.47-.22-8.08-1.12-14.3-8.05-14.3-16.44,0-.45.06-4.62.04-6.26-.03-4.64-1.24-8.96-3.89-12.87-5.74-8.43-16.81-11.9-26.14-8.09-3.64,1.48-6.37,4.07-8.72,7.45-.51-.58-.88-1.05-1.29-1.48-1.1-1.18-2.09-2.52-3.35-3.49-8.68-6.63-21.71-4.76-28.96,3.88-3.97,4.73-5.35,10.2-5.39,16.15-.03,4.22-.03,8.44-.03,12.66,0,.01,0,.03,0,.04v13.69c0,3.58,2.9,6.47,6.47,6.47h.21c.69.03,1.38-.05,2.03-.27,1.57-.52,2.72-1.42,3.46-2.72.65-1.01,1.02-2.2,1.02-3.49v-9.65c0-5.93,0-11.85,0-17.78,0-.93.06-1.87.19-2.8.58-4.01,3.73-7.21,7.7-7.87,4.45-.74,8.52,1.13,10.28,5.03.69,1.54,1.07,3.34,1.09,5.03.1,9.31.03,18.62.06,27.93,0,.03,0,.06,0,.1h0c0,.29.02.56.06.84.02.15.04.29.06.43.01.05.02.1.03.15.21,1.03.64,1.92,1.29,2.67.97,1.19,2.34,2.02,3.92,2.3,1.76.44,3.7.03,5.11-1.29,1.51-1.19,2.47-3.02,2.47-5.08v-7.42c.04-7.07-.01-14.15.02-21.22.02-5.96,5-10.28,10.92-9.54,5.11.64,8.63,4.77,8.65,10.3,0,2.1,0,4.19,0,6.28.07,15.85,13.08,28.75,29.33,28.84,15.87.09,28.77-13.01,28.77-29.02,0-15.89-12.77-28.66-28.67-28.67Z"/>
</svg>