<svg width="573" height="80" viewBox="0 0 573 80" fill="none" xmlns="http://www.w3.org/2000/svg">
<path d="M572.656 50.78C572.656 66.71 559.676 79.8 543.756 79.66C527.606 79.53 515.086 66.62 514.976 50.8C514.876 34.77 527.816 21.97 543.916 21.98C559.936 21.98 572.646 34.73 572.656 50.77V50.78ZM560.476 51.02C560.496 41.7 553.146 34.15 544.046 34.15C534.796 34.15 527.236 41.66 527.216 50.87C527.196 59.82 534.776 67.38 543.806 67.41C552.976 67.44 560.456 60.08 560.476 51.02Z" fill="#C90209"/>
<path d="M412.806 40.84C412.806 36.91 412.806 32.97 412.806 29.04C412.806 25.28 415.336 22.55 418.966 22.38C422.636 22.21 425.656 24.62 425.666 28.42C425.686 37.84 426.116 47.34 425.016 56.64C423.756 67.36 417.146 74.58 406.766 78C391.606 83 376.526 73.31 373.116 58.86C372.436 55.97 372.106 52.95 372.036 49.98C371.876 43.43 371.946 36.87 372.006 30.31C372.026 27.77 372.436 25.32 374.756 23.68C376.806 22.23 378.996 21.91 381.296 22.86C383.556 23.8 384.966 25.55 385.026 28.02C385.166 34.26 385.136 40.5 385.216 46.75C385.256 49.62 385.106 52.53 385.506 55.35C386.876 64.93 396.946 70.06 405.506 65.54C410.596 62.85 412.536 58.13 412.776 52.65C412.946 48.72 412.806 44.78 412.806 40.85V40.84Z" fill="#C90209"/>
<path d="M58.0661 58.53C58.0661 55.82 58.0661 53.11 58.0561 50.4C58.0061 41.31 54.5161 33.82 47.4661 28.04C36.2261 18.82 18.9061 19.62 8.63607 29.83C-1.80393 40.21 -2.91392 56.91 6.04608 68.64C13.1961 77.99 25.0861 81.32 36.0261 78.17C39.5761 77.15 42.6761 75.39 45.6661 72.88C45.9061 76.09 48.5761 78.63 51.8561 78.63C52.8361 78.63 53.7561 78.4 54.5761 78C54.8961 77.85 55.2061 77.68 55.5061 77.48C56.5961 76.74 57.2361 75.81 57.6061 74.76C57.8961 74.04 58.0661 73.25 58.0661 72.43V58.55V58.53ZM29.1161 67.05C19.9561 67.04 12.5661 59.55 12.5961 50.31C12.6261 41.11 20.0961 33.75 29.3461 33.79C38.5961 33.83 45.8761 41.22 45.8561 50.54C45.8361 59.72 38.3961 67.06 29.1161 67.05Z" fill="#C90209"/>
<path d="M246.566 62.46C243.716 60.32 239.666 60.89 237.526 63.74C236.726 64.8 235.786 65.55 234.716 65.97C233.086 66.62 231.536 66.37 230.796 66.26C229.886 66.12 228.126 65.68 226.596 64.36C224.946 62.93 224.176 60.93 223.356 58.81L222.946 57.75C222.356 56.24 221.856 54.93 221.346 53.39C220.336 50.34 219.956 48.77 219.576 47.26C219.526 47.04 219.456 46.82 219.376 46.61L234.486 31.5C237.016 28.97 237.016 24.87 234.486 22.34C231.956 19.81 227.856 19.81 225.326 22.34L204.146 43.52V6.69998C204.146 3.11998 201.246 0.22998 197.676 0.22998C194.106 0.22998 191.206 3.12998 191.206 6.69998V71.92C191.206 75.5 194.106 78.39 197.676 78.39C201.256 78.39 204.146 75.49 204.146 71.92V61.83L208.936 57.04C208.976 57.17 209.016 57.29 209.066 57.43C209.676 59.29 210.266 60.81 210.896 62.43L211.296 63.47C212.386 66.3 214.046 70.59 218.126 74.12C221.886 77.38 225.996 78.59 228.776 79.02C229.426 79.12 230.676 79.32 232.316 79.32C234.266 79.32 236.776 79.04 239.446 77.98C242.706 76.69 245.606 74.45 247.826 71.5C249.966 68.65 249.396 64.6 246.546 62.46H246.566Z" fill="#C90209"/>
<path d="M312.356 51.26C309.046 49.1 305.386 47.43 301.786 45.75C298.476 44.21 294.966 43.09 291.666 41.53C291.646 41.53 291.636 41.52 291.626 41.51C289.536 40.51 288.856 38.75 289.236 36.9C289.276 36.71 289.336 36.52 289.396 36.34C289.866 34.98 291.436 34.35 291.946 34.13C293.986 33.27 295.956 33.6 297.266 33.82C298.106 33.96 298.776 34.16 299.236 34.31C299.736 34.46 300.406 34.68 301.166 34.96C302.116 35.32 303.136 35.73 304.286 36.33C305.686 37.06 306.526 37.7 308.296 38.61C309.426 39.2 311.686 39.97 313.906 38.99C316.556 37.82 317.226 34.88 317.266 34.7C317.336 34.35 317.516 33.34 317.226 32.07C316.756 30.03 315.326 28.54 313.516 27.22C305.896 21.65 296.476 21.59 296.476 21.59C291.966 21.57 287.706 22.47 283.676 24.57C273.716 29.74 274.326 43.21 281.576 48.06C284.866 50.26 288.496 51.98 292.086 53.68C295.286 55.2 298.696 56.28 301.906 57.77C303.726 58.62 304.966 60.13 304.806 62.38C304.656 64.53 303.386 65.8 301.476 66.45C297.686 67.72 293.906 67.21 290.336 65.75C287.836 64.72 286.846 63.52 282.786 61.7C281.926 61.32 280.326 60.63 278.576 61.12C277.656 61.38 277.046 61.86 276.646 62.17C276.256 62.47 274.696 63.77 274.176 66.06C274.106 66.35 273.896 67.33 274.056 68.37C274.416 70.72 276.486 72.16 279.016 73.86C280.396 74.79 283.656 76.82 288.636 78.16C289.366 78.36 290.596 78.7 292.276 78.94C299.086 79.91 305.526 79.1 311.426 75.14C319.296 69.86 320.526 56.58 312.376 51.26H312.356Z" fill="#C90209"/>
<path d="M337.186 40.49V34.51H360.106C363.466 34.51 366.186 31.79 366.186 28.43C366.186 25.07 363.466 22.35 360.106 22.35H337.186V11.15C337.186 7.61999 334.316 4.75 330.786 4.75C327.256 4.75 324.386 7.61999 324.386 11.15V22.35V34.52V40.5V50.83V58.12C324.386 69.44 333.166 79.09 344.476 79.52C356.366 79.97 366.186 70.43 366.186 58.64V52.07C366.186 48.57 363.486 45.51 359.986 45.41C356.366 45.3 353.386 48.21 353.386 51.81V58.36C353.386 62.48 350.436 66.15 346.356 66.68C341.416 67.31 337.186 63.46 337.186 58.65V50.85V40.52V40.49Z" fill="#C90209"/>
<path d="M488.316 32.68V19.9C488.316 17.7 488.326 15.51 488.326 13.31C488.326 11.31 488.366 9.31998 488.316 7.31998V6.68997C488.316 3.34997 485.746 0.599977 482.476 0.319977C482.466 0.319977 482.446 0.319977 482.436 0.319977C482.266 0.309977 482.086 0.289978 481.916 0.289978C481.896 0.289978 481.876 0.289978 481.856 0.289978C481.756 0.289978 481.646 0.289998 481.546 0.309998C481.426 0.309998 481.306 0.319996 481.186 0.339996C481.156 0.339996 481.136 0.339996 481.106 0.339996C481.076 0.339996 481.046 0.359985 481.016 0.359985C480.656 0.409985 480.306 0.489976 479.966 0.599976C479.936 0.599976 479.906 0.619974 479.876 0.629974C477.346 1.47997 475.516 3.86997 475.516 6.68997V13.1C475.516 15.62 475.516 18.14 475.516 20.66V26.29C474.676 25.91 474.276 25.77 473.916 25.56C467.486 21.84 460.646 20.87 453.356 22.17C437.416 25 426.796 41.34 430.736 57.08C434.416 71.79 449.596 81.62 464.426 78.81C468.606 78.02 472.626 76.19 476.146 73.59C476.246 76.88 478.936 79.52 482.246 79.52C485.616 79.52 488.356 76.79 488.356 73.41V32.67H488.316V32.68ZM459.636 67.05C450.056 67.02 442.916 59.69 442.946 49.91C442.976 40.84 450.386 33.76 459.836 33.79C469.076 33.82 476.166 41.17 476.136 50.69C476.106 59.72 468.676 67.08 459.626 67.05H459.636Z" fill="#C90209"/>
<path d="M503.376 22.37H500.446C497.607 22.37 495.306 24.6712 495.306 27.51V73.8C495.306 76.6387 497.607 78.94 500.446 78.94H503.376C506.215 78.94 508.516 76.6387 508.516 73.8V27.51C508.516 24.6712 506.215 22.37 503.376 22.37Z" fill="#C90209"/>
<path d="M501.906 13.2C505.551 13.2 508.506 10.2451 508.506 6.59998C508.506 2.9549 505.551 0 501.906 0C498.261 0 495.306 2.9549 495.306 6.59998C495.306 10.2451 498.261 13.2 501.906 13.2Z" fill="#C90209"/>
<path d="M157.966 21.63C157.646 21.63 157.356 21.63 157.356 21.63C157.326 21.63 157.286 21.65 157.256 21.66C154.166 21.92 151.746 24.5 151.746 27.66C151.746 30.19 153.316 32.36 155.526 33.25C156.296 33.6 157.146 33.79 158.026 33.79H158.066C167.156 33.81 174.486 41.36 174.456 50.69C174.436 59.66 166.966 67.06 157.936 67.05C157.096 67.05 156.276 66.97 155.466 66.83C147.386 65.71 141.166 58.78 141.166 50.39C141.166 49.94 141.226 45.77 141.206 44.13C141.176 39.49 139.966 35.17 137.316 31.26C131.576 22.83 120.506 19.36 111.176 23.17C107.536 24.65 104.806 27.24 102.456 30.62C101.946 30.04 101.576 29.57 101.166 29.14C100.066 27.96 99.0761 26.62 97.8161 25.65C89.1361 19.02 76.1061 20.89 68.8561 29.53C64.8861 34.26 63.5061 39.73 63.4661 45.68C63.4361 49.9 63.4361 54.12 63.4361 58.34C63.4361 58.35 63.4361 58.37 63.4361 58.38V72.07C63.4361 75.65 66.3361 78.54 69.9061 78.54H70.1161C70.8061 78.57 71.4961 78.49 72.1461 78.27C73.7161 77.75 74.8661 76.85 75.6061 75.55C76.2561 74.54 76.6261 73.35 76.6261 72.06V62.41C76.6261 56.48 76.6261 50.56 76.6261 44.63C76.6261 43.7 76.6861 42.76 76.8161 41.83C77.3961 37.82 80.5461 34.62 84.5161 33.96C88.9661 33.22 93.0361 35.09 94.7961 38.99C95.4861 40.53 95.8661 42.33 95.8861 44.02C95.9861 53.33 95.9161 62.64 95.9461 71.95C95.9461 71.98 95.9461 72.01 95.9461 72.05C95.9461 72.34 95.9661 72.61 96.0061 72.89C96.0261 73.04 96.0461 73.18 96.0661 73.32C96.0761 73.37 96.0861 73.42 96.0961 73.47C96.3061 74.5 96.7361 75.39 97.3861 76.14C98.3561 77.33 99.7261 78.16 101.306 78.44C103.066 78.88 105.006 78.47 106.416 77.15C107.926 75.96 108.886 74.13 108.886 72.07V64.65C108.926 57.58 108.876 50.5 108.906 43.43C108.926 37.47 113.906 33.15 119.826 33.89C124.936 34.53 128.456 38.66 128.476 44.19C128.476 46.29 128.476 48.38 128.476 50.47C128.546 66.32 141.556 79.22 157.806 79.31C173.676 79.4 186.576 66.3 186.576 50.29C186.576 34.4 173.806 21.63 157.906 21.62L157.966 21.63Z" fill="#C90209"/>
</svg>
